<svg width="375" height="560" viewBox="0 0 375 560" fill="none" xmlns="http://www.w3.org/2000/svg">
  <path d="M349.743 489.542C416.394 478.197 408.102 412.223 404.964 382.595L494.236 -30.7471L359.14 -138.278L-237.036 -248.147L-200.116 379.036C-204.03 374.293 -207.67 369.919 -211 366C-233.538 337.201 -191.998 440.676 -197.279 427.235L-200.116 379.036C-146.431 444.087 -41.0821 578.431 26.5 557C99.0092 534.006 116.73 510.344 165.388 481.23C249.416 430.951 283.093 500.888 349.743 489.542Z" fill="black"/>
  <path d="M349.743 489.542C416.394 478.197 408.102 412.223 404.964 382.595L494.236 -30.7471L359.14 -138.278L-237.036 -248.147L-200.116 379.036C-204.03 374.293 -207.67 369.919 -211 366C-233.538 337.201 -191.998 440.676 -197.279 427.235L-200.116 379.036C-146.431 444.087 -41.0821 578.431 26.5 557C99.0092 534.006 116.73 510.344 165.388 481.23C249.416 430.951 283.093 500.888 349.743 489.542Z" fill="url(#paint0_linear_10_64)"/>
  <defs>
    <linearGradient id="paint0_linear_10_64" x1="23.7542" y1="1.71787" x2="128.874" y2="619.255" gradientUnits="userSpaceOnUse">
      <stop stop-color="#660099"/>
      <stop offset="1" stop-color="#9567E0"/>
    </linearGradient>
  </defs>
</svg>