<svg id="svg" xmlns="http://www.w3.org/2000/svg" xmlns:xlink="http://www.w3.org/1999/xlink" width="400" height="336.551724137931" viewBox="0, 0, 400,336.551724137931"><g id="svgg"><path id="path0" d="M189.547 22.759 C 159.595 51.124,159.111 92.050,188.541 107.663 L 201.379 114.473 214.217 107.663 C 243.981 91.873,242.140 44.228,210.845 20.358 C 200.069 12.139,200.853 12.051,189.547 22.759 M69.389 160.690 C 70.505 202.941,77.888 224.095,98.829 245.036 C 115.432 261.639,122.377 264.831,116.335 253.081 C 104.168 229.420,114.127 184.561,138.174 154.719 C 154.417 134.562,154.208 136.552,140.800 129.711 C 131.774 125.107,124.534 124.138,99.150 124.138 L 68.424 124.138 69.389 160.690 M266.207 127.317 C 247.477 137.542,247.755 136.305,260.996 150.523 C 288.600 180.165,299.501 226.752,285.271 254.269 C 279.522 265.386,287.076 261.506,303.584 244.862 C 324.961 223.311,332.075 203.188,333.342 160.690 L 334.432 124.138 303.078 124.222 C 285.798 124.268,269.248 125.658,266.207 127.317 M183.855 136.585 C 109.825 173.304,103.721 275.862,175.565 275.862 L 188.548 275.862 182.873 269.655 C 160.072 244.719,161.666 207.442,186.569 183.240 C 222.380 148.435,254.515 231.784,219.886 269.655 L 214.211 275.862 228.622 275.862 C 298.266 275.862,291.690 170.990,219.925 137.167 C 200.862 128.182,200.799 128.181,183.855 136.585 M14.910 190.707 C 21.558 232.279,61.271 270.526,102.236 274.808 L 117.241 276.377 108.364 270.697 C 84.459 255.400,63.328 223.714,57.423 194.309 L 54.411 179.310 33.749 179.310 L 13.088 179.310 14.910 190.707 M345.188 193.948 C 338.142 225.434,318.317 255.389,294.394 270.697 L 285.517 276.377 300.213 274.845 C 341.784 270.511,380.571 233.278,387.522 191.034 L 389.450 179.310 368.957 179.310 L 348.464 179.310 345.188 193.948 M193.929 193.793 C 176.357 213.086,176.062 241.418,193.239 260.108 L 201.379 268.966 209.520 260.108 C 225.543 242.673,226.220 216.906,211.173 197.178 C 202.550 185.873,201.356 185.639,193.929 193.793 " stroke="none" fill="#000000" fill-rule="evenodd"></path></g></svg>